<svg width="17" height="17" viewBox="0 0 17 17" fill="none" xmlns="http://www.w3.org/2000/svg">
<path d="M15.5723 7.59554L12.5774 10.2093L13.4745 14.1007C13.522 14.3041 13.5084 14.517 13.4356 14.7128C13.3627 14.9086 13.2337 15.0785 13.0648 15.2014C12.8958 15.3243 12.6944 15.3946 12.4857 15.4037C12.277 15.4127 12.0703 15.36 11.8914 15.2522L8.49735 13.1936L5.11063 15.2522C4.93172 15.36 4.72498 15.4127 4.51628 15.4037C4.30758 15.3946 4.10617 15.3243 3.93723 15.2014C3.7683 15.0785 3.63933 14.9086 3.56645 14.7128C3.49358 14.517 3.48003 14.3041 3.52751 14.1007L4.42333 10.2133L1.42774 7.59554C1.2693 7.45889 1.15474 7.2785 1.09841 7.077C1.04208 6.8755 1.04649 6.66185 1.1111 6.46285C1.17571 6.26385 1.29763 6.08835 1.46158 5.95837C1.62553 5.82838 1.82421 5.7497 2.0327 5.73218L5.98122 5.39018L7.52251 1.71393C7.603 1.52104 7.73876 1.35626 7.9127 1.24036C8.08665 1.12446 8.29099 1.06262 8.50001 1.06262C8.70903 1.06262 8.91337 1.12446 9.08732 1.24036C9.26126 1.35626 9.39702 1.52104 9.47751 1.71393L11.0234 5.39018L14.9706 5.73218C15.1791 5.7497 15.3778 5.82838 15.5418 5.95837C15.7057 6.08835 15.8276 6.26385 15.8922 6.46285C15.9568 6.66185 15.9613 6.8755 15.9049 7.077C15.8486 7.2785 15.734 7.45889 15.5756 7.59554H15.5723Z" fill="#FFD04C"/>
</svg>
