<svg width="112" height="112" viewBox="0 0 112 112" fill="none" xmlns="http://www.w3.org/2000/svg">
<circle cx="56" cy="56" r="55" fill="#02081E" stroke="#ECF0FC"/>
<circle cx="56" cy="56" r="49" fill="#073658" stroke="#ECF0FC" stroke-width="0.5"/>
<path d="M69.7698 52.5894C69.2114 51.8728 68.5315 51.2516 67.9002 50.6305C66.2733 49.1971 64.428 48.1699 62.874 46.6648C59.2561 43.177 58.4548 37.4196 60.7615 33C58.4548 33.5495 56.4394 34.7917 54.7155 36.1534C48.4266 41.1225 45.9499 49.8899 48.9122 57.4151C49.0094 57.654 49.1065 57.8929 49.1065 58.2035C49.1065 58.7291 48.7423 59.2069 48.2566 59.398C47.6982 59.6369 47.1154 59.4935 46.6541 59.1113C46.5154 58.9985 46.4001 58.8607 46.3141 58.7052C43.5704 55.289 43.1333 50.3916 44.9787 46.4737C40.9237 49.7227 38.7141 55.2173 39.0298 60.4013C39.1754 61.5958 39.3211 62.7903 39.7339 63.9848C40.0739 65.4181 40.7294 66.8515 41.4579 68.1177C44.0803 72.2506 48.6209 75.2129 53.5014 75.8101C58.6976 76.4551 64.258 75.5234 68.2401 71.9878C72.6836 68.0221 74.2376 61.6675 71.9552 56.2207L71.6395 55.5995C71.1296 54.5006 69.7698 52.5894 69.7698 52.5894ZM62.097 67.6399C61.4171 68.2132 60.3002 68.8344 59.426 69.0733C56.7065 70.0288 53.987 68.691 52.3845 67.1143C55.2739 66.4454 56.9979 64.3431 57.5078 62.2169C57.9206 60.3058 57.1436 58.7291 56.8279 56.8896C56.5366 55.1217 56.5851 53.6167 57.2407 51.9683C57.7021 52.8761 58.1877 53.7839 58.7704 54.5006C60.6401 56.8896 63.5781 57.9407 64.2094 61.1897C64.3066 61.5241 64.3551 61.8586 64.3551 62.2169C64.428 64.1759 63.5538 66.3259 62.097 67.6399Z" fill="#ECF0FC"/>
</svg>
